<?xml version="1.0" standalone="no"?><!DOCTYPE svg PUBLIC "-//W3C//DTD SVG 1.1//EN" "http://www.w3.org/Graphics/SVG/1.1/DTD/svg11.dtd"><svg t="1527158642404" class="icon" style="" viewBox="0 0 1024 1024" version="1.1" xmlns="http://www.w3.org/2000/svg" p-id="2201" xmlns:xlink="http://www.w3.org/1999/xlink" width="128" height="128"><defs><style type="text/css"></style></defs><path d="M937.062 621.688 1024 621.688 1024 402.25l-86.938 0c-88.188 0-109.188-50.938-47-113.188l61.562-61.562-155.188-155.126-61.5 61.5c-62.312 62.312-113.312 41.188-113.126-46.876 0-0.25-0.126-0.376-0.126-0.562L621.684 0 402.344 0l0 87.25c-0.25 87.876-51.062 108.876-113.282 46.626l-61.532-61.5L72.406 227.5l61.5 61.562c62.282 62.25 41.156 113.188-46.876 113.188L0 402.25l0 219.438 87.032 0c88.032 0 109.156 50.938 46.876 113.25l-61.5 61.5 155.126 155.188 61.532-61.562c62.218-62.188 113.032-41.188 113.282 46.626L402.348 1024l219.344 0 0-86.438c0-0.188 0.126-0.376 0.126-0.562-0.188-88.062 50.812-109.126 113.126-46.938l61.5 61.562 155.188-155.188-61.562-61.5C827.876 672.626 848.876 621.688 937.062 621.688zM512 704c-106.032 0-192-86-192-192s85.968-192 192-192c106 0 192 86 192 192S618 704 512 704z" p-id="2202" fill="#828282"></path></svg>